<?xml version="1.0" encoding="UTF-8" standalone="no"?>
<svg
   xmlns:dc="http://purl.org/dc/elements/1.1/"
   xmlns:cc="http://creativecommons.org/ns#"
   xmlns:rdf="http://www.w3.org/1999/02/22-rdf-syntax-ns#"
   xmlns:svg="http://www.w3.org/2000/svg"
   xmlns="http://www.w3.org/2000/svg"
   xmlns:sodipodi="http://sodipodi.sourceforge.net/DTD/sodipodi-0.dtd"
   xmlns:inkscape="http://www.inkscape.org/namespaces/inkscape"
   width="4.4589677mm"
   height="7.9372869mm"
   viewBox="0 0 4.4589677 7.9372869"
   version="1.1"
   id="svg32"
   inkscape:version="1.0.1 (3bc2e813f5, 2020-09-07)"
   sodipodi:docname="aurlok.svg">
  <defs
     id="defs26" />
  <sodipodi:namedview
     id="base"
     pagecolor="#ffffff"
     bordercolor="#666666"
     borderopacity="1.0"
     inkscape:pageopacity="0.0"
     inkscape:pageshadow="2"
     inkscape:zoom="2.8"
     inkscape:cx="179.5341"
     inkscape:cy="25.768285"
     inkscape:document-units="mm"
     inkscape:current-layer="layer1"
     inkscape:document-rotation="0"
     showgrid="false"
     fit-margin-top="0"
     fit-margin-left="0"
     fit-margin-right="0"
     fit-margin-bottom="0"
     inkscape:window-width="1680"
     inkscape:window-height="997"
     inkscape:window-x="-8"
     inkscape:window-y="-8"
     inkscape:window-maximized="1" />
  <metadata
     id="metadata29">
    <rdf:RDF>
      <cc:Work
         rdf:about="">
        <dc:format>image/svg+xml</dc:format>
        <dc:type
           rdf:resource="http://purl.org/dc/dcmitype/StillImage" />
        <dc:title></dc:title>
      </cc:Work>
    </rdf:RDF>
  </metadata>
  <g
     inkscape:label="Calque 1"
     inkscape:groupmode="layer"
     id="layer1"
     transform="translate(-91.068731,-119.44838)">
    <path
       style="fill:#000000;stroke-width:0.0841279"
       d="m 93.548373,127.22576 c -0.14318,-0.26753 -0.08683,-1.82112 0.08067,-2.22414 0.108922,-0.26207 0.124658,-0.43334 0.06975,-0.75907 l -0.07091,-0.42064 h -0.430431 c -0.365135,0 -0.434626,0.0255 -0.458069,0.16825 -0.0672,0.40907 -0.04198,0.79277 0.08323,1.26632 0.07405,0.28005 0.144098,0.62076 0.155669,0.75715 0.03217,0.37918 -0.08528,0.9293 -0.222763,1.0434 -0.10529,0.0874 -0.113068,0.0671 -0.05371,-0.13982 0.04616,-0.16094 0.02108,-0.43396 -0.07485,-0.81504 -0.105472,-0.41899 -0.134302,-0.79471 -0.107233,-1.39756 0.03378,-0.75227 0.02159,-0.83996 -0.1393,-1.00083 -0.30854,-0.30854 -0.3851,-0.22802 -0.408607,0.42971 -0.01192,0.33332 -0.05428,0.7242 -0.09416,0.86863 -0.07696,0.27872 -0.0572,0.85225 0.03989,1.15816 0.05096,0.16057 0.04143,0.17002 -0.07447,0.0738 -0.255131,-0.21173 -0.364101,-1.18329 -0.176956,-1.57768 0.07451,-0.15701 0.147551,-0.41017 0.16232,-0.56258 0.01475,-0.1524 0.0341,-0.3138 0.04297,-0.35865 0.04158,-0.21041 -0.02556,-0.38876 -0.292495,-0.77679 -0.250861,-0.36469 -0.45411,-0.9392 -0.401376,-1.13455 0.0094,-0.0347 -0.01752,-0.0631 -0.05975,-0.0631 -0.116343,0 -0.01625,-0.48084 0.199952,-0.96046 0.248454,-0.55119 0.725976,-1.00087 1.302286,-1.22634 0.734545,-0.28739 1.662271,-0.0683 2.216238,0.52343 0.284505,0.30388 0.705054,1.13692 0.691092,1.36892 -0.04312,0.7165 -0.266537,1.27159 -0.702764,1.7461 -0.117202,0.12749 -0.226966,0.29785 -0.243923,0.37858 -0.08881,0.42286 -0.06257,0.81889 0.08065,1.21737 0.190772,0.53076 0.158998,1.07483 -0.09038,1.54766 l -0.17206,0.32623 -0.0037,-0.35258 c -0.0019,-0.19392 0.03021,-0.37354 0.07165,-0.39916 0.0438,-0.0271 0.04481,-0.17889 0.0025,-0.36251 -0.04014,-0.17376 -0.07808,-0.62652 -0.08432,-1.00613 -0.0064,-0.38948 -0.05574,-0.75094 -0.113249,-0.82958 -0.09477,-0.12961 -0.111825,-0.12946 -0.243443,0.002 -0.138374,0.13838 -0.169213,0.42786 -0.148241,1.39144 0.0045,0.20821 -0.04136,0.70053 -0.10198,1.09404 -0.06062,0.39351 -0.104671,0.81941 -0.09789,0.94645 0.01475,0.27596 -0.0099,0.28705 -0.131713,0.0594 z m -0.599296,-3.93893 c -0.112877,-0.18074 -0.720418,-0.54005 -1.081485,-0.6396 -0.176277,-0.0486 -0.150134,-0.003 0.1615,0.28493 0.204499,0.1886 0.431646,0.34412 0.504768,0.34559 0.07312,0.002 0.205898,0.0579 0.295061,0.12532 0.206502,0.15623 0.25875,0.10569 0.120156,-0.11624 z m 0.64314,0.1565 c 0.02858,-0.0463 0.13861,-0.0841 0.244476,-0.0841 0.105865,0 0.268863,-0.0662 0.362221,-0.14722 0.239828,-0.20802 0.11854,-0.52356 -0.204381,-0.53172 -0.20721,-0.005 -0.214759,-0.0143 -0.06581,-0.0792 0.163669,-0.0713 0.163122,-0.0749 -0.02009,-0.12984 -0.103586,-0.0311 -0.171051,-0.0845 -0.14992,-0.1187 0.02115,-0.0342 -0.01714,-0.134 -0.08507,-0.22179 -0.121128,-0.15656 -0.12592,-0.15649 -0.249691,0.004 -0.147723,0.19117 -0.16667,0.33435 -0.03334,0.25195 0.05107,-0.0316 0.02553,0.0453 -0.05674,0.17093 l -0.149596,0.22831 -0.110629,-0.21114 c -0.126763,-0.24194 -0.60736,-0.43139 -0.88926,-0.35054 -0.135231,0.0388 -0.111173,0.004 0.08281,-0.11887 0.150378,-0.0954 0.276406,-0.22141 0.280057,-0.27993 0.0052,-0.0843 0.01545,-0.0845 0.04907,-10e-4 0.05816,0.14414 0.196671,0.13283 0.196671,-0.0161 0,-0.0667 0.03742,-0.14436 0.08316,-0.17263 0.04782,-0.0295 0.06171,0.005 0.0327,0.0801 -0.03664,0.0955 -0.01335,0.11727 0.08509,0.0795 0.153974,-0.0591 0.153475,-0.0577 0.08468,-0.23697 -0.02798,-0.0729 -0.08073,-0.11414 -0.117218,-0.0916 -0.06178,0.0382 -0.206918,-0.36802 -0.151351,-0.42359 0.0139,-0.0139 0.119841,0.0311 0.235447,0.0999 0.115608,0.0688 0.143942,0.10476 0.06297,0.0799 -0.177446,-0.0545 -0.183694,0.0204 -0.01978,0.23704 0.103376,0.13662 0.154581,0.14658 0.333837,0.0649 0.22082,-0.10061 0.272931,-0.22396 0.1255,-0.29708 -0.04743,-0.0235 -0.03872,-0.0332 0.01936,-0.0216 0.05807,0.0116 0.170629,-0.0574 0.250127,-0.15353 l 0.144542,-0.17471 -0.04752,0.18929 c -0.02614,0.10411 -0.07185,0.18929 -0.101595,0.18929 -0.02973,0 -0.104531,0.0808 -0.166197,0.17953 -0.09351,0.14974 -0.09338,0.19141 9.54e-4,0.2511 0.172073,0.10906 0.238975,0.0887 0.24039,-0.0731 9.54e-4,-0.12581 0.01313,-0.12887 0.08284,-0.021 0.134788,0.20857 0.09847,0.24148 -0.222543,0.20166 -0.266619,-0.0331 -0.292841,-0.0214 -0.200788,0.0895 0.05824,0.0702 0.140391,0.10626 0.182566,0.0802 0.04218,-0.0261 0.07126,-0.0162 0.06463,0.022 -0.0456,0.26247 0.02035,0.29729 0.215604,0.11385 0.114251,-0.10733 0.187999,-0.22707 0.163885,-0.26608 -0.0241,-0.039 0.02172,-0.0458 0.101869,-0.015 0.137167,0.0526 0.137421,0.0441 0.0044,-0.14588 -0.07774,-0.11098 -0.141198,-0.24069 -0.141023,-0.28823 1.75e-4,-0.0475 0.07282,0.0325 0.161437,0.1778 0.192724,0.31606 0.408081,0.48129 0.304078,0.2333 -0.03714,-0.0886 -0.08629,-0.47538 -0.109211,-0.8596 l -0.04168,-0.69858 -0.171754,0.27794 c -0.09446,0.15286 -0.169831,0.39151 -0.167482,0.53032 0.0032,0.18987 -0.0053,0.20422 -0.0343,0.058 -0.02121,-0.10694 -0.08967,-0.21404 -0.152127,-0.238 -0.08027,-0.0308 -0.03521,-0.11707 0.153749,-0.29435 0.258219,-0.24225 0.260155,-0.24906 0.05698,-0.20059 -0.193259,0.0461 -0.190314,0.0388 0.0363,-0.0898 l 0.246613,-0.13995 -0.232051,-0.12159 c -0.307483,-0.16111 -0.528554,-0.21405 -0.934203,-0.22374 -0.355478,-0.008 -0.883343,0.1672 -0.883343,0.29401 0,0.0993 0.51695,0.4116 0.598171,0.3614 0.03477,-0.0215 0.08578,-0.003 0.113351,0.042 0.05143,0.0832 -0.134932,0.0654 -0.395643,-0.0379 -0.135316,-0.0536 -0.137215,-0.0396 -0.0242,0.1782 0.142263,0.27422 0.08394,0.4002 -0.0809,0.17476 -0.108286,-0.14809 -0.113288,-0.14808 -0.151618,1.4e-4 -0.02181,0.0843 -0.04403,-0.005 -0.0494,-0.19931 -0.0054,-0.19392 -0.04762,-0.37598 -0.09389,-0.40457 -0.07566,-0.0468 -0.120569,0.0637 -0.09409,0.23135 0.0055,0.0347 -0.02789,0.0631 -0.07417,0.0631 -0.04627,0 -0.08429,-0.0473 -0.08449,-0.10516 -6.36e-4,-0.1701 -0.49411,0.62392 -0.552205,0.88843 -0.06352,0.28922 0.0283,0.98342 0.130069,0.98342 0.03958,0 0.113396,-0.1041 0.164035,-0.23135 0.0678,-0.17036 0.08281,-0.18145 0.05695,-0.0421 -0.0193,0.10411 -0.0049,0.18929 0.03213,0.18929 0.03699,0 0.08805,0.0542 0.113465,0.12042 0.0323,0.0842 -0.0029,0.11096 -0.117192,0.089 -0.272559,-0.0525 -0.185869,0.0289 0.27827,0.26131 0.242918,0.12164 0.564707,0.31349 0.715085,0.42634 0.150382,0.11286 0.273418,0.17172 0.273418,0.1308 0,-0.0409 0.04732,-0.0762 0.10516,-0.0784 0.05784,-0.002 0.180874,-0.0315 0.273414,-0.065 0.09254,-0.0336 0.04335,0.0193 -0.109322,0.11747 -0.152671,0.0982 -0.254543,0.21578 -0.226387,0.26133 0.06663,0.10782 0.352949,0.10694 0.41984,-10e-4 z m -0.591236,-0.58146 c -0.09125,-0.0885 -0.336275,-0.21915 -0.544494,-0.29044 -0.208216,-0.0713 -0.310495,-0.13141 -0.227287,-0.13362 0.08321,-0.002 0.310355,0.0744 0.504768,0.17022 0.43763,0.21571 0.630017,0.25931 0.693187,0.1571 0.02684,-0.0434 0.08953,-0.079 0.139307,-0.079 0.04978,0 -0.0058,0.0757 -0.123393,0.16825 -0.260078,0.20458 -0.239061,0.20423 -0.442088,0.007 z m -0.999953,-0.89078 c 0.283507,-0.80588 0.368572,-0.99664 0.318868,-0.71509 -0.02859,0.16195 -0.125351,0.42695 -0.21502,0.5889 -0.08967,0.16194 -0.136404,0.21873 -0.103848,0.12619 z m -0.133436,-0.33155 c 0,-0.0667 0.03433,-0.14244 0.07628,-0.16837 0.04196,-0.0259 0.05647,0.0286 0.03225,0.12123 -0.05137,0.19643 -0.108534,0.22126 -0.108534,0.0471 z m 0.187773,-0.80418 c 0,-0.16195 0.01733,-0.2282 0.03847,-0.14722 0.02115,0.081 0.02115,0.21347 0,0.29445 -0.02118,0.081 -0.03847,0.0147 -0.03847,-0.14723 z m 0.99002,0 c -0.07582,-0.049 -0.0862,-0.0821 -0.02601,-0.0828 0.05511,-6.4e-4 0.123589,0.0366 0.152187,0.0828 0.06455,0.10445 0.03543,0.10445 -0.126191,0 z m 0.18152,-0.29369 c 0.02763,-0.0276 0.15632,-0.0695 0.285999,-0.093 0.129678,-0.0235 0.276288,-0.0653 0.325802,-0.0928 0.06068,-0.0337 0.0626,-0.0201 0.0059,0.0418 -0.04627,0.0505 -0.215481,0.11484 -0.376021,0.14299 -0.16054,0.0281 -0.269294,0.0286 -0.241675,9.5e-4 z m 1.614411,2.16554 c 0.231456,-0.45497 0.24296,-0.5934 0.05756,-0.69263 -0.148324,-0.0794 -0.211551,-0.0525 -0.433245,0.18417 l -0.259577,0.27711 0.129663,-0.2594 c 0.110591,-0.22124 0.111901,-0.25939 0.0089,-0.25939 -0.06641,0 -0.185571,0.0716 -0.264791,0.15916 -0.111844,0.12359 -0.123075,0.19096 -0.05024,0.30145 0.05159,0.0783 0.135176,0.13284 0.185752,0.12127 0.05057,-0.0116 0.09196,0.0282 0.09196,0.0883 0,0.1398 0.170283,0.31127 0.309112,0.31127 0.05896,0 0.160168,-0.10411 0.224899,-0.23135 z m -1.627677,-0.27771 c 0,-0.11866 -0.09479,-0.21215 -0.303541,-0.29938 -0.404479,-0.169 -0.450616,-0.0973 -0.07863,0.12215 0.163923,0.0967 0.29804,0.21498 0.29804,0.26281 0,0.0478 0.01892,0.087 0.04206,0.087 0.02315,0 0.04206,-0.0777 0.04206,-0.17255 z m 0.08284,-0.31119 c -0.0037,-0.18224 -0.15874,-0.28736 -0.339268,-0.23006 l -0.193306,0.0614 0.203837,0.11292 c 0.233733,0.12949 0.330578,0.14593 0.328737,0.0558 z m 0.148515,-0.3088 c 0,-0.13823 -0.03716,-0.18939 -0.115679,-0.15926 -0.136063,0.0522 -0.155516,0.19465 -0.02658,0.19465 0.049,0 0.06569,0.0379 0.0371,0.0841 -0.02858,0.0463 -0.01663,0.0841 0.02658,0.0841 0.04322,0 0.07858,-0.0916 0.07858,-0.20364 z m 1.575518,-0.75363 c -0.247608,-0.76008 -0.460822,-0.8267 -0.460822,-0.14398 0,0.52709 0.132515,0.89116 0.36198,0.99448 0.165589,0.0746 0.187681,0.057 0.212021,-0.16822 0.01494,-0.1383 -0.03599,-0.44533 -0.113179,-0.68228 z"
       id="path62" />
  </g>
</svg>
