<?xml version="1.0" encoding="UTF-8" standalone="no"?>
<svg
   xmlns:dc="http://purl.org/dc/elements/1.1/"
   xmlns:cc="http://creativecommons.org/ns#"
   xmlns:rdf="http://www.w3.org/1999/02/22-rdf-syntax-ns#"
   xmlns:svg="http://www.w3.org/2000/svg"
   xmlns="http://www.w3.org/2000/svg"
   xmlns:sodipodi="http://sodipodi.sourceforge.net/DTD/sodipodi-0.dtd"
   xmlns:inkscape="http://www.inkscape.org/namespaces/inkscape"
   width="8.999712mm"
   height="7.9374986mm"
   viewBox="0 0 8.9997123 7.9374985"
   version="1.1"
   id="svg70"
   inkscape:version="1.0.1 (3bc2e813f5, 2020-09-07)"
   sodipodi:docname="auroch.svg">
  <defs
     id="defs64" />
  <sodipodi:namedview
     id="base"
     pagecolor="#ffffff"
     bordercolor="#666666"
     borderopacity="1.0"
     inkscape:pageopacity="0.0"
     inkscape:pageshadow="2"
     inkscape:zoom="2.8"
     inkscape:cx="-5.4394898"
     inkscape:cy="64.315058"
     inkscape:document-units="mm"
     inkscape:current-layer="layer1"
     inkscape:document-rotation="0"
     showgrid="false"
     fit-margin-top="0"
     fit-margin-left="0"
     fit-margin-right="0"
     fit-margin-bottom="0"
     inkscape:window-width="1438"
     inkscape:window-height="1009"
     inkscape:window-x="226"
     inkscape:window-y="0"
     inkscape:window-maximized="0" />
  <metadata
     id="metadata67">
    <rdf:RDF>
      <cc:Work
         rdf:about="">
        <dc:format>image/svg+xml</dc:format>
        <dc:type
           rdf:resource="http://purl.org/dc/dcmitype/StillImage" />
        <dc:title></dc:title>
      </cc:Work>
    </rdf:RDF>
  </metadata>
  <g
     inkscape:label="Calque 1"
     inkscape:groupmode="layer"
     id="layer1"
     transform="translate(-61.876578,-119.82836)">
    <path
       style="fill:#000000;stroke-width:0.134456"
       d="m 65.81136,127.60451 c -0.08874,-0.0887 -0.161348,-0.26378 -0.161348,-0.38898 0,-0.24668 -0.261177,-0.39086 -0.707998,-0.39086 -0.326203,0 -1.445896,-1.10572 -1.795257,-1.77286 -0.154532,-0.29509 -0.246706,-0.82984 -0.272806,-1.58267 -0.03668,-1.058 -0.06282,-1.14927 -0.376234,-1.31348 -0.548997,-0.28765 -0.790991,-1.02601 -0.491321,-1.49909 0.08965,-0.14154 0.159982,-0.0955 0.300468,0.19679 0.100881,0.20988 0.334682,0.46482 0.519561,0.56654 0.317706,0.1748 0.372411,0.1509 0.997498,-0.43585 1.241791,-1.16562 2.412928,-1.43085 3.885369,-0.87994 0.496456,0.18575 0.925198,0.47834 1.305547,0.89097 0.504435,0.54725 0.600621,0.59878 0.880047,0.47146 0.172543,-0.0786 0.4143,-0.33745 0.537238,-0.57518 0.197274,-0.38149 0.23902,-0.40455 0.355492,-0.19643 0.223277,0.39897 0.0032,1.1211 -0.417534,1.3696 -0.365137,0.21569 -0.378964,0.26307 -0.383818,1.31545 -0.0047,1.01551 -0.03994,1.15029 -0.505141,1.93119 -0.444144,0.74556 -0.601248,0.8885 -1.403963,1.27734 -0.649657,0.3147 -0.944612,0.54183 -1.048768,0.8076 -0.118383,0.30206 -0.228281,0.36975 -0.600298,0.36975 -0.250462,0 -0.527993,-0.0726 -0.616734,-0.16135 z m 0.86776,-0.076 c 0.08533,-0.0543 0.252295,-0.67359 0.37104,-1.37613 0.333511,-1.97315 0.349407,-2.02335 0.689811,-2.17845 0.457406,-0.2084 0.668311,-0.8837 0.376648,-1.20599 -0.123209,-0.13614 -0.199176,-0.26587 -0.168816,-0.2883 0.03036,-0.0224 0.47471,-0.10928 0.987446,-0.19302 0.98124,-0.16026 1.59013,-0.4962 1.670574,-0.92169 0.04175,-0.22084 3.5e-5,-0.21002 -0.3141,0.0815 -0.316171,0.29339 -0.479397,0.33486 -1.283285,0.32607 -0.722951,-0.008 -1.07014,-0.0874 -1.614314,-0.36975 -0.815021,-0.42285 -1.258222,-0.45 -1.813903,-0.11113 -0.565317,0.34475 -1.740701,0.60504 -2.312877,0.51219 -0.263715,-0.0428 -0.628608,-0.21635 -0.810874,-0.38566 -0.308185,-0.2863 -0.327957,-0.28935 -0.282317,-0.0437 0.07679,0.41334 0.836212,0.83714 1.690498,0.94339 0.962244,0.11969 1.04989,0.17153 0.78495,0.46428 -0.170952,0.1889 -0.183289,0.3134 -0.06475,0.65344 0.08054,0.23105 0.258656,0.4557 0.395808,0.49923 0.308862,0.098 0.471778,0.58806 0.727106,2.18706 0.1095,0.68574 0.235629,1.30592 0.280288,1.37818 0.09526,0.15413 0.469508,0.16955 0.691066,0.0285 z M 65.509688,126.186 c -0.0032,-0.12942 -0.08063,-0.59833 -0.172005,-1.04204 -0.12549,-0.60936 -0.238683,-0.83899 -0.46265,-0.93857 -0.325762,-0.14483 -0.772165,-1.22199 -0.560612,-1.35274 0.282561,-0.17463 0.09361,-0.33059 -0.400526,-0.33059 -0.506354,0 -0.529307,0.0195 -0.614314,0.52268 -0.184055,1.08941 0.410504,2.36871 1.389376,2.9895 0.709871,0.45018 0.82872,0.47216 0.820731,0.15176 z m 2.829455,-0.29502 c 0.861079,-0.67557 1.362148,-1.96723 1.145604,-2.95315 -0.08322,-0.37891 -0.138276,-0.41577 -0.621023,-0.41577 -0.494812,0 -0.524265,0.0217 -0.44713,0.329 0.117139,0.46671 -0.158206,1.19684 -0.51039,1.35339 -0.226509,0.10068 -0.338858,0.32775 -0.464842,0.93951 -0.246213,1.19557 -0.234163,1.31213 0.124656,1.20585 0.16639,-0.0493 0.514296,-0.25577 0.773125,-0.45883 z m -2.958044,-4.7459 c 0.605,-0.35388 1.415531,-0.35261 2.016848,0.003 0.258829,0.15314 0.71262,0.32262 1.008425,0.37661 0.497567,0.0908 0.523531,0.0809 0.34686,-0.13235 -0.305595,-0.36889 -1.235786,-0.86046 -1.9154,-1.0122 -0.495371,-0.11061 -0.749938,-0.097 -1.210109,0.0649 -0.698625,0.24569 -1.591189,0.81438 -1.591189,1.01381 0,0.2024 0.768685,0.0229 1.344565,-0.31391 z"
       id="path86" />
  </g>
</svg>
