<?xml version="1.0" encoding="UTF-8" standalone="no"?>
<svg
   xmlns:dc="http://purl.org/dc/elements/1.1/"
   xmlns:cc="http://creativecommons.org/ns#"
   xmlns:rdf="http://www.w3.org/1999/02/22-rdf-syntax-ns#"
   xmlns:svg="http://www.w3.org/2000/svg"
   xmlns="http://www.w3.org/2000/svg"
   xmlns:sodipodi="http://sodipodi.sourceforge.net/DTD/sodipodi-0.dtd"
   xmlns:inkscape="http://www.inkscape.org/namespaces/inkscape"
   width="8.6311646mm"
   height="7.9370794mm"
   viewBox="0 0 8.6311647 7.9370793"
   version="1.1"
   id="svg94"
   inkscape:version="1.0.1 (3bc2e813f5, 2020-09-07)"
   sodipodi:docname="avalon.svg">
  <defs
     id="defs88" />
  <sodipodi:namedview
     id="base"
     pagecolor="#ffffff"
     bordercolor="#666666"
     borderopacity="1.0"
     inkscape:pageopacity="0.0"
     inkscape:pageshadow="2"
     inkscape:zoom="3.959798"
     inkscape:cx="21.494017"
     inkscape:cy="7.080121"
     inkscape:document-units="mm"
     inkscape:current-layer="layer1"
     inkscape:document-rotation="0"
     showgrid="false"
     fit-margin-top="0"
     fit-margin-left="0"
     fit-margin-right="0"
     fit-margin-bottom="0"
     inkscape:window-width="1680"
     inkscape:window-height="997"
     inkscape:window-x="-8"
     inkscape:window-y="-8"
     inkscape:window-maximized="1" />
  <metadata
     id="metadata91">
    <rdf:RDF>
      <cc:Work
         rdf:about="">
        <dc:format>image/svg+xml</dc:format>
        <dc:type
           rdf:resource="http://purl.org/dc/dcmitype/StillImage" />
        <dc:title></dc:title>
      </cc:Work>
    </rdf:RDF>
  </metadata>
  <g
     inkscape:label="Calque 1"
     inkscape:groupmode="layer"
     id="layer1"
     transform="translate(-95.707699,-105.14064)">
    <path
       style="fill:#000000;stroke-width:0.131995"
       d="m 99.761171,113.07384 c -0.628824,-0.046 -1.451946,-0.31009 -1.451946,-0.46581 0,-0.0711 -0.174868,-0.0924 -0.395987,-0.0482 -0.348955,0.0698 -0.395989,0.0428 -0.395989,-0.22703 0,-0.16843 -0.118794,-0.41374 -0.263988,-0.54514 -0.145194,-0.1314 -0.263991,-0.1988 -0.263991,-0.14977 0,0.18201 -1.052615,-0.45531 -1.196715,-0.72456 -0.117336,-0.21925 -0.113893,-0.25744 0.01598,-0.17718 0.09105,0.0563 0.310595,0.11824 0.487873,0.1377 0.274843,0.0302 0.309752,-0.007 0.236981,-0.25138 -0.04694,-0.15772 -0.09981,-0.35501 -0.117503,-0.43844 -0.01769,-0.0834 -0.105144,-0.23962 -0.194346,-0.3471 -0.129913,-0.15654 -0.11789,-0.27261 0.06042,-0.5833 0.207944,-0.36232 0.20814,-0.41688 0.003,-0.82813 -0.285479,-0.57226 -0.277236,-0.70382 0.03367,-0.53742 0.218168,0.11676 0.297539,0.0564 0.572175,-0.43495 0.220325,-0.39421 0.28747,-0.6554 0.217267,-0.84518 -0.0934,-0.25247 -0.05981,-0.27129 0.416116,-0.23306 0.53419,0.0429 1.208855,-0.32182 1.145513,-0.61928 -0.01676,-0.0787 0.177421,-0.26463 0.431516,-0.4132 0.45891,-0.26834 0.460447,-0.26836 0.230702,-0.004 -0.127204,0.14658 -0.19155,0.30624 -0.142994,0.3548 0.140136,0.14014 1.603945,0.10237 1.694225,-0.0437 0.13897,-0.22487 0.30964,-0.14593 0.3538,0.16364 0.0238,0.16647 0.15346,0.31687 0.29684,0.34423 0.14007,0.0267 0.33741,0.13133 0.43853,0.23246 0.10345,0.10344 0.31096,0.15198 0.47442,0.11095 0.1598,-0.0401 0.43765,-0.0142 0.61744,0.0575 0.31036,0.12385 0.31226,0.13086 0.0377,0.1388 -0.46114,0.0133 -0.51366,0.28585 -0.1203,0.62421 0.19733,0.16974 0.32511,0.36311 0.28394,0.42972 -0.0938,0.1517 0.30522,0.5653 0.45562,0.47234 0.1174,-0.0725 0.70348,0.59444 0.60706,0.69087 -0.0311,0.0311 -0.18129,-0.0102 -0.33379,-0.0918 -0.22847,-0.12228 -0.29306,-0.10719 -0.36711,0.0858 -0.0907,0.23644 -0.10449,0.91954 -0.0234,1.16315 0.0241,0.0726 -0.0628,0.29159 -0.19314,0.48664 -0.13038,0.19505 -0.22584,0.46234 -0.21214,0.59398 0.0464,0.44629 -0.004,0.56152 -0.2119,0.48183 -0.22803,-0.0875 -0.61862,0.37397 -0.68507,0.80941 -0.0536,0.35121 -0.29648,0.59243 -0.29648,0.29445 0,-0.33099 -0.48953,-0.27924 -0.83127,0.0879 -0.23549,0.25297 -0.33527,0.2843 -0.52544,0.16499 -0.15456,-0.0969 -0.2673,-0.10218 -0.32999,-0.0153 -0.0524,0.0726 -0.30313,0.11678 -0.557229,0.0982 z m 1.088959,-0.82842 c 0.56452,-0.14591 0.6889,-0.25252 0.64414,-0.55215 -0.008,-0.0519 0.0507,-0.25982 0.12996,-0.46198 l 0.14406,-0.36757 0.11824,0.30805 c 0.14185,0.36955 0.34317,0.3296 0.57207,-0.11353 0.0928,-0.17958 0.26329,-0.50884 0.37895,-0.73168 0.17992,-0.34665 0.1847,-0.4545 0.0331,-0.74675 -0.12039,-0.23205 -0.13407,-0.38472 -0.0427,-0.47613 0.33865,-0.33866 -0.62117,-2.00182 -1.15527,-2.00182 -0.0907,0 -0.19789,-0.12652 -0.23832,-0.28114 -0.0475,-0.18184 -0.14322,-0.25439 -0.27086,-0.20541 -0.10854,0.0417 -0.22246,0.005 -0.25315,-0.0818 -0.0401,-0.11311 -0.18831,-0.0882 -0.52528,0.0881 -0.45883,0.24017 -0.995186,0.18502 -0.605017,-0.0622 0.146512,-0.0928 0.143074,-0.1166 -0.01891,-0.13069 -0.424572,-0.0369 -0.732117,0.0403 -0.870885,0.21852 -0.0797,0.10239 -0.273552,0.2058 -0.430779,0.2298 -0.299991,0.0458 -0.600791,0.28279 -0.628767,0.49542 -0.0091,0.069 -0.02395,0.21263 -0.03298,0.31925 -0.0094,0.11014 -0.09728,0.16285 -0.203583,0.12206 -0.225788,-0.0866 -0.613293,0.65761 -0.593242,1.1394 0.0075,0.17964 -0.01649,0.45048 -0.05326,0.60186 -0.07985,0.32876 0.01986,0.50351 0.358864,0.62899 0.239173,0.0885 0.239981,0.10125 0.01676,0.26446 -0.222032,0.16236 -0.217851,0.19712 0.07873,0.65472 0.313896,0.48429 0.430649,0.53946 1.033125,0.48815 0.261947,-0.0223 0.294958,0.007 0.172543,0.15481 -0.301603,0.36341 0.390029,0.77083 0.871304,0.51326 0.195137,-0.10443 0.273377,-0.091 0.329979,0.0565 0.04081,0.10634 0.150692,0.17046 0.244188,0.14248 0.0935,-0.028 0.45213,-0.1238 0.79696,-0.21292 z"
       id="path110" />
  </g>
</svg>
