<?xml version="1.0" encoding="UTF-8" standalone="no"?>
<svg
   xmlns:dc="http://purl.org/dc/elements/1.1/"
   xmlns:cc="http://creativecommons.org/ns#"
   xmlns:rdf="http://www.w3.org/1999/02/22-rdf-syntax-ns#"
   xmlns:svg="http://www.w3.org/2000/svg"
   xmlns="http://www.w3.org/2000/svg"
   xmlns:sodipodi="http://sodipodi.sourceforge.net/DTD/sodipodi-0.dtd"
   xmlns:inkscape="http://www.inkscape.org/namespaces/inkscape"
   width="9.6097412mm"
   height="7.9375005mm"
   viewBox="0 0 9.6097412 7.9375005"
   version="1.1"
   id="svg8"
   inkscape:version="1.0.1 (3bc2e813f5, 2020-09-07)"
   sodipodi:docname="cartel.svg">
  <defs
     id="defs2" />
  <sodipodi:namedview
     id="base"
     pagecolor="#ffffff"
     bordercolor="#666666"
     borderopacity="1.0"
     inkscape:pageopacity="0.0"
     inkscape:pageshadow="2"
     inkscape:zoom="3.959798"
     inkscape:cx="56.250677"
     inkscape:cy="41.085381"
     inkscape:document-units="mm"
     inkscape:current-layer="layer1"
     inkscape:document-rotation="0"
     showgrid="false"
     fit-margin-top="0"
     fit-margin-left="0"
     fit-margin-right="0"
     fit-margin-bottom="0"
     inkscape:window-width="1680"
     inkscape:window-height="997"
     inkscape:window-x="-8"
     inkscape:window-y="-8"
     inkscape:window-maximized="1" />
  <metadata
     id="metadata5">
    <rdf:RDF>
      <cc:Work
         rdf:about="">
        <dc:format>image/svg+xml</dc:format>
        <dc:type
           rdf:resource="http://purl.org/dc/dcmitype/StillImage" />
        <dc:title></dc:title>
      </cc:Work>
    </rdf:RDF>
  </metadata>
  <g
     inkscape:label="Calque 1"
     inkscape:groupmode="layer"
     id="layer1"
     transform="translate(-112.65147,-101.54897)">
    <path
       style="fill:#000000;stroke-width:0.140234"
       d="m 112.82067,109.42714 c -0.31472,-0.12714 0.0768,-0.59015 0.81568,-0.96455 0.40672,-0.2061 0.75457,-0.49497 0.82772,-0.68736 0.1526,-0.40138 0.42125,-0.59034 0.54793,-0.38538 0.0593,0.0959 0.34149,-0.005 0.78357,-0.28017 l 0.69095,-0.43006 -0.48373,-0.25778 c -1.05002,-0.55956 -2.46657,-1.64686 -2.84259,-2.18187 -0.43123,-0.61356 -0.60263,-1.43632 -0.45887,-2.20264 l 0.0916,-0.48836 0.94235,0.61943 c 0.5183,0.34069 0.98968,0.61956 1.04753,0.61972 0.0579,1.5e-4 0.10656,0.14227 0.10826,0.3158 0.007,0.72039 0.51111,1.44633 1.52753,2.19982 l 1.00799,0.74726 0.65892,-0.46149 c 1.3201,-0.92455 1.85091,-1.58142 1.85091,-2.29046 0,-0.27426 0.20564,-0.47625 1.00645,-0.98861 0.55355,-0.35415 1.05285,-0.64392 1.10955,-0.64392 0.25,0 0.2843,1.14061 0.055,1.83082 -0.29734,0.89521 -0.86503,1.46572 -2.37916,2.39098 -0.65683,0.40137 -1.19424,0.7851 -1.19424,0.85272 0,0.0676 0.11044,0.16326 0.24542,0.21254 0.13497,0.0493 0.39631,0.20538 0.58076,0.3469 0.2551,0.19574 0.38094,0.21948 0.52588,0.0992 0.22833,-0.18951 0.66362,0.0983 0.5594,0.36992 -0.0362,0.0943 0.28828,0.36678 0.73822,0.61985 0.94209,0.52991 1.2676,0.923 0.85389,1.03119 -0.15777,0.0412 -0.57107,-0.12227 -1.00894,-0.39918 -0.4858,-0.30723 -0.84659,-0.44311 -1.0457,-0.39384 -0.21424,0.053 -0.35038,-0.0114 -0.46104,-0.21819 -0.15828,-0.29574 -1.65118,-1.13353 -2.0199,-1.13353 -0.42449,0 -2.04308,0.86926 -2.1303,1.14408 -0.0662,0.20868 -0.17115,0.26154 -0.40342,0.20324 -0.21362,-0.0536 -0.5566,0.0758 -1.07359,0.40523 -0.79995,0.50966 -0.79966,0.50955 -1.0741,0.39869 z"
       id="path24" />
  </g>
</svg>
