<?xml version="1.0" encoding="UTF-8" standalone="no"?>
<svg
   xmlns:dc="http://purl.org/dc/elements/1.1/"
   xmlns:cc="http://creativecommons.org/ns#"
   xmlns:rdf="http://www.w3.org/1999/02/22-rdf-syntax-ns#"
   xmlns:svg="http://www.w3.org/2000/svg"
   xmlns="http://www.w3.org/2000/svg"
   xmlns:sodipodi="http://sodipodi.sourceforge.net/DTD/sodipodi-0.dtd"
   xmlns:inkscape="http://www.inkscape.org/namespaces/inkscape"
   width="7.878953mm"
   height="7.9374862mm"
   viewBox="0 0 7.8789531 7.9374864"
   version="1.1"
   id="svg142"
   inkscape:version="1.0.1 (3bc2e813f5, 2020-09-07)"
   sodipodi:docname="cobra.svg">
  <defs
     id="defs136" />
  <sodipodi:namedview
     id="base"
     pagecolor="#ffffff"
     bordercolor="#666666"
     borderopacity="1.0"
     inkscape:pageopacity="0.0"
     inkscape:pageshadow="2"
     inkscape:zoom="5.6"
     inkscape:cx="13.874284"
     inkscape:cy="47.251469"
     inkscape:document-units="mm"
     inkscape:current-layer="layer1"
     inkscape:document-rotation="0"
     showgrid="false"
     fit-margin-top="0"
     fit-margin-left="0"
     fit-margin-right="0"
     fit-margin-bottom="0"
     inkscape:window-width="1680"
     inkscape:window-height="997"
     inkscape:window-x="-8"
     inkscape:window-y="-8"
     inkscape:window-maximized="1" />
  <metadata
     id="metadata139">
    <rdf:RDF>
      <cc:Work
         rdf:about="">
        <dc:format>image/svg+xml</dc:format>
        <dc:type
           rdf:resource="http://purl.org/dc/dcmitype/StillImage" />
        <dc:title></dc:title>
      </cc:Work>
    </rdf:RDF>
  </metadata>
  <g
     inkscape:label="Calque 1"
     inkscape:groupmode="layer"
     id="layer1"
     transform="translate(-48.945056,-139.86637)">
    <path
       style="fill:#000000;stroke-width:0.132483"
       d="m 52.110251,147.46205 c -0.222872,-0.18753 -0.473026,-0.56728 -0.5559,-0.84389 -0.147508,-0.49233 -0.159783,-0.50012 -0.583432,-0.3701 -0.643015,0.19734 -1.320077,0.0207 -1.713626,-0.44695 -0.634839,-0.75446 -0.286649,-1.58705 0.908188,-2.17162 0.406925,-0.1991 0.739864,-0.38613 0.739864,-0.41564 0,-0.0295 -0.245266,-0.31974 -0.545036,-0.64494 -0.496311,-0.53844 -0.536848,-0.63496 -0.453435,-1.07958 0.119742,-0.63828 0.712692,-1.18205 1.564935,-1.43514 0.85281,-0.25325 1.200293,-0.25134 2.085297,0.0115 1.383285,0.4108 1.98584,1.4987 1.307627,2.36092 -0.154038,0.19583 -0.258369,0.36782 -0.231844,0.38219 1.104776,0.59893 1.324595,0.676 1.540433,0.54008 0.316758,-0.19948 0.351956,-0.50561 0.08844,-0.76913 -0.121613,-0.12161 -0.191305,-0.25093 -0.154872,-0.28736 0.128414,-0.12841 0.495234,0.36658 0.495234,0.66828 0,0.57549 -0.592611,0.81002 -1.211832,0.4796 -0.902997,-0.48184 -1.023766,-0.47603 -1.597486,0.0769 l -0.529344,0.51014 0.0953,-1.24703 c 0.05241,-0.68587 0.179359,-1.44821 0.28209,-1.69408 0.118715,-0.28413 0.143864,-0.52373 0.06901,-0.65749 -0.09561,-0.17086 -0.13573,-0.13892 -0.213208,0.16978 -0.05248,0.20912 -0.153004,0.4496 -0.22337,0.53438 -0.103612,0.12485 -0.270039,3.35813 -0.172852,3.35813 0.01551,0 0.288075,-0.11792 0.605712,-0.26206 0.781915,-0.35479 2.018026,-0.3579 2.594331,-0.007 0.593053,0.3616 0.671842,0.80303 0.289165,1.62005 -0.4086,0.87239 -1.132685,1.47783 -2.087956,1.74587 -1.155116,0.32411 -1.903162,0.28462 -2.391432,-0.12623 z m 2.136177,-0.85721 c 0.587313,-0.16311 1.230974,-0.67681 1.500084,-1.19722 0.181894,-0.35174 0.175955,-0.38664 -0.09,-0.52898 -0.409286,-0.21904 -1.550378,-0.0883 -2.270135,0.26015 -0.512898,0.2483 -0.632461,0.37654 -0.703363,0.75448 -0.150019,0.79968 0.379093,1.04049 1.563414,0.71157 z m -3.145993,-1.11021 c 0.354835,-0.14827 0.470024,-0.28716 0.53782,-0.64855 0.08774,-0.4677 -0.207951,-1.15003 -0.498373,-1.15003 -0.329918,0 -1.466583,0.75235 -1.63827,1.08434 -0.173808,0.33611 -0.167073,0.39197 0.07666,0.6357 0.31436,0.31435 0.887046,0.34391 1.522163,0.0785 z m 1.692794,-3.5728 c 0.127515,-0.0968 0.231845,-0.22337 0.231845,-0.28128 0,-0.0579 -0.120262,0.004 -0.267249,0.13656 -0.260484,0.23574 -0.277961,0.23207 -0.690476,-0.14508 -0.232775,-0.2128 -0.339004,-0.26768 -0.236065,-0.12195 0.209846,0.29708 0.54374,0.59835 0.656058,0.59196 0.04072,-0.003 0.178372,-0.0834 0.305887,-0.18021 z m -0.873736,-1.20093 c -0.04315,-0.11245 -0.142037,-0.20445 -0.219753,-0.20445 -0.09797,0 -0.09596,0.0847 0.0066,0.27632 0.164452,0.30728 0.336423,0.24929 0.213178,-0.0719 z m 1.29325,0.1078 c 0.110912,-0.28903 -0.03635,-0.42337 -0.192844,-0.17593 -0.156666,0.24774 -0.160002,0.39361 -0.009,0.39361 0.06507,0 0.1559,-0.0979 0.201843,-0.21768 z"
       id="path158" />
  </g>
</svg>
