<?xml version="1.0" encoding="UTF-8" standalone="no"?>
<svg
   xmlns:dc="http://purl.org/dc/elements/1.1/"
   xmlns:cc="http://creativecommons.org/ns#"
   xmlns:rdf="http://www.w3.org/1999/02/22-rdf-syntax-ns#"
   xmlns:svg="http://www.w3.org/2000/svg"
   xmlns="http://www.w3.org/2000/svg"
   xmlns:sodipodi="http://sodipodi.sourceforge.net/DTD/sodipodi-0.dtd"
   xmlns:inkscape="http://www.inkscape.org/namespaces/inkscape"
   width="8.1572475mm"
   height="7.9375033mm"
   viewBox="0 0 8.1572478 7.9375035"
   version="1.1"
   id="svg8"
   inkscape:version="1.0.1 (3bc2e813f5, 2020-09-07)"
   sodipodi:docname="evades.svg">
  <defs
     id="defs2" />
  <sodipodi:namedview
     id="base"
     pagecolor="#ffffff"
     bordercolor="#666666"
     borderopacity="1.0"
     inkscape:pageopacity="0.0"
     inkscape:pageshadow="2"
     inkscape:zoom="2.8"
     inkscape:cx="-1.0861745"
     inkscape:cy="44.064077"
     inkscape:document-units="mm"
     inkscape:current-layer="layer1"
     inkscape:document-rotation="0"
     showgrid="false"
     fit-margin-top="0"
     fit-margin-left="0"
     fit-margin-right="0"
     fit-margin-bottom="0"
     inkscape:window-width="1680"
     inkscape:window-height="997"
     inkscape:window-x="-8"
     inkscape:window-y="-8"
     inkscape:window-maximized="1" />
  <metadata
     id="metadata5">
    <rdf:RDF>
      <cc:Work
         rdf:about="">
        <dc:format>image/svg+xml</dc:format>
        <dc:type
           rdf:resource="http://purl.org/dc/dcmitype/StillImage" />
        <dc:title></dc:title>
      </cc:Work>
    </rdf:RDF>
  </metadata>
  <g
     inkscape:label="Calque 1"
     inkscape:groupmode="layer"
     id="layer1"
     transform="translate(-138.26365,-142.09128)">
    <path
       style="fill:#000000;stroke-width:0.139892"
       d="m 140.48276,149.91951 c -0.0565,-0.79411 0.13907,-2.34584 0.38276,-3.03654 0.22854,-0.64775 0.14681,-0.75387 -0.88818,-1.15332 -0.35175,-0.13576 -0.60113,-0.32471 -0.61067,-0.46271 -0.009,-0.12828 -0.0246,-0.3215 -0.035,-0.42938 -0.0104,-0.10789 -0.13451,-0.21329 -0.27591,-0.23424 -0.27598,-0.0409 -0.79211,-0.45208 -0.79211,-0.63106 0,-0.0598 0.11965,-0.14676 0.26588,-0.19317 0.38662,-0.12271 0.51148,-0.75548 0.19517,-0.98911 -0.19618,-0.1449 -0.21433,-0.22296 -0.0828,-0.35634 0.13246,-0.13437 0.2985,-0.1211 0.77849,0.0622 0.36026,0.13759 0.78037,0.19895 1.02587,0.14985 0.34575,-0.0692 0.44762,-0.0236 0.60495,0.27035 0.10405,0.19443 0.43791,0.55338 0.74189,0.79767 l 0.5527,0.44416 0.61662,-0.60517 c 0.33915,-0.33285 0.65469,-0.7251 0.70121,-0.87167 0.07,-0.2206 0.17378,-0.25223 0.60252,-0.18368 0.35272,0.0564 0.61592,0.0142 0.82517,-0.13237 0.66862,-0.46833 1.26579,-0.29798 0.79173,0.22584 -0.22599,0.24973 -0.22669,0.29071 -0.0105,0.6207 0.12732,0.19432 0.32592,0.35331 0.44134,0.35331 0.32976,0 -0.17112,0.68279 -0.57531,0.78424 -0.23808,0.0598 -0.33611,0.19696 -0.36754,0.51443 -0.0367,0.37053 -0.15769,0.49128 -0.83943,0.83756 -0.76556,0.38885 -0.79081,0.41916 -0.64842,0.77792 0.30615,0.77137 0.53984,1.8037 0.62284,2.75146 0.0943,1.07702 0.0844,1.07594 -0.68218,-0.074 -0.62481,-0.93731 -1.34958,-1.6997 -1.5173,-1.59604 -0.0677,0.0418 -0.50145,0.65038 -0.96387,1.35229 -0.53774,0.81626 -0.84766,1.17912 -0.85993,1.00683 z"
       id="path24" />
  </g>
</svg>
