<?xml version="1.0" encoding="UTF-8" standalone="no"?>
<svg
   xmlns:dc="http://purl.org/dc/elements/1.1/"
   xmlns:cc="http://creativecommons.org/ns#"
   xmlns:rdf="http://www.w3.org/1999/02/22-rdf-syntax-ns#"
   xmlns:svg="http://www.w3.org/2000/svg"
   xmlns="http://www.w3.org/2000/svg"
   xmlns:sodipodi="http://sodipodi.sourceforge.net/DTD/sodipodi-0.dtd"
   xmlns:inkscape="http://www.inkscape.org/namespaces/inkscape"
   width="9.3412542mm"
   height="7.9375005mm"
   viewBox="0 0 9.3412546 7.9375005"
   version="1.1"
   id="svg128"
   inkscape:version="1.0.1 (3bc2e813f5, 2020-09-07)"
   sodipodi:docname="loge.svg">
  <defs
     id="defs122" />
  <sodipodi:namedview
     id="base"
     pagecolor="#ffffff"
     bordercolor="#666666"
     borderopacity="1.0"
     inkscape:pageopacity="0.0"
     inkscape:pageshadow="2"
     inkscape:zoom="3.959798"
     inkscape:cx="-9.6386816"
     inkscape:cy="39.165055"
     inkscape:document-units="mm"
     inkscape:current-layer="layer1"
     inkscape:document-rotation="0"
     showgrid="false"
     fit-margin-top="0"
     fit-margin-left="0"
     fit-margin-right="0"
     fit-margin-bottom="0"
     inkscape:window-width="1680"
     inkscape:window-height="997"
     inkscape:window-x="-8"
     inkscape:window-y="-8"
     inkscape:window-maximized="1" />
  <metadata
     id="metadata125">
    <rdf:RDF>
      <cc:Work
         rdf:about="">
        <dc:format>image/svg+xml</dc:format>
        <dc:type
           rdf:resource="http://purl.org/dc/dcmitype/StillImage" />
        <dc:title></dc:title>
      </cc:Work>
    </rdf:RDF>
  </metadata>
  <g
     inkscape:label="Calque 1"
     inkscape:groupmode="layer"
     id="layer1"
     transform="translate(-118.07083,-139.36432)">
    <path
       style="fill:#000000;stroke-width:0.155366"
       d="m 120.51699,147.17102 c -0.0453,-0.0733 0.0622,-0.17103 0.23887,-0.21723 0.50098,-0.13101 0.58414,-0.65238 0.15216,-0.95393 -0.70724,-0.4937 -1.02335,-0.97055 -1.3686,-2.06449 -0.19191,-0.60806 -0.36106,-1.18531 -0.37589,-1.28276 -0.0597,-0.39242 -0.28718,-0.57516 -0.59448,-0.47763 -0.37922,0.12036 -0.64823,-0.21781 -0.40572,-0.51003 0.091,-0.10968 0.33286,-0.19941 0.53741,-0.19941 0.43129,0 0.65186,0.4096 1.13945,2.11602 0.36843,1.28935 0.73628,1.81505 1.56641,2.23855 1.41607,0.72242 3.22912,0.15578 3.89752,-1.2181 0.28594,-0.58776 0.40083,-0.94354 0.67088,-2.07768 0.20857,-0.8759 0.84238,-1.36585 1.24546,-0.96277 0.34244,0.34243 0.21065,0.61216 -0.27365,0.56007 -0.37669,-0.0405 -0.42464,0.0373 -0.8139,1.32061 -0.43748,1.44229 -0.95186,2.28472 -1.56582,2.56447 -0.4706,0.21441 -0.46779,0.34964 0.016,0.7703 0.21363,0.18575 0.38841,0.37954 0.38841,0.43066 0,0.14738 -4.36297,0.11149 -4.45452,-0.0366 z m 1.42489,-2.85598 c -1.79052,-0.6294 -2.24183,-2.90697 -0.83043,-4.19078 0.51468,-0.46816 1.23003,-0.78986 1.68494,-0.75773 1.03772,0.0733 2.20786,1.09698 2.41512,2.11285 0.22445,1.10013 -0.52085,2.43959 -1.54561,2.77779 -0.84483,0.27882 -1.07363,0.2865 -1.72402,0.0579 z"
       id="path144" />
  </g>
</svg>
