<?xml version="1.0" encoding="UTF-8" standalone="no"?>
<svg
   xmlns:dc="http://purl.org/dc/elements/1.1/"
   xmlns:cc="http://creativecommons.org/ns#"
   xmlns:rdf="http://www.w3.org/1999/02/22-rdf-syntax-ns#"
   xmlns:svg="http://www.w3.org/2000/svg"
   xmlns="http://www.w3.org/2000/svg"
   xmlns:sodipodi="http://sodipodi.sourceforge.net/DTD/sodipodi-0.dtd"
   xmlns:inkscape="http://www.inkscape.org/namespaces/inkscape"
   width="4.9298272mm"
   height="7.93748mm"
   viewBox="0 0 4.9298272 7.9374799"
   version="1.1"
   id="svg104"
   inkscape:version="1.0.1 (3bc2e813f5, 2020-09-07)"
   sodipodi:docname="rados.svg">
  <defs
     id="defs98" />
  <sodipodi:namedview
     id="base"
     pagecolor="#ffffff"
     bordercolor="#666666"
     borderopacity="1.0"
     inkscape:pageopacity="0.0"
     inkscape:pageshadow="2"
     inkscape:zoom="2.8"
     inkscape:cx="22.622079"
     inkscape:cy="51.890624"
     inkscape:document-units="mm"
     inkscape:current-layer="layer1"
     inkscape:document-rotation="0"
     showgrid="false"
     fit-margin-top="0"
     fit-margin-left="0"
     fit-margin-right="0"
     fit-margin-bottom="0"
     inkscape:window-width="1680"
     inkscape:window-height="997"
     inkscape:window-x="-8"
     inkscape:window-y="-8"
     inkscape:window-maximized="1" />
  <metadata
     id="metadata101">
    <rdf:RDF>
      <cc:Work
         rdf:about="">
        <dc:format>image/svg+xml</dc:format>
        <dc:type
           rdf:resource="http://purl.org/dc/dcmitype/StillImage" />
        <dc:title></dc:title>
      </cc:Work>
    </rdf:RDF>
  </metadata>
  <g
     inkscape:label="Calque 1"
     inkscape:groupmode="layer"
     id="layer1"
     transform="translate(-112.99908,-114.84829)">
    <path
       style="fill:#000000;stroke-width:0.103084"
       d="m 116.08784,122.52111 c -0.0553,-0.14543 -0.10053,-0.35417 -0.10053,-0.46388 0,-0.31409 -0.3356,-0.2317 -0.56836,0.13954 -0.13819,0.22042 -0.30391,0.34215 -0.49588,0.36427 -0.42694,0.0492 -0.59675,-0.14648 -0.57031,-0.6572 0.0178,-0.34397 0.11525,-0.5491 0.45547,-0.9588 0.69321,-0.83476 0.72325,-1.44807 0.054,-1.10197 -0.64353,0.33278 -0.75003,-0.25213 -0.13767,-0.75612 0.69631,-0.5731 0.75563,-0.63727 0.68889,-0.74525 -0.0363,-0.0587 -0.28113,-0.0918 -0.54409,-0.0735 -0.42997,0.0299 -0.47934,0.0106 -0.49034,-0.19187 -0.007,-0.13622 0.14489,-0.3785 0.38571,-0.61366 0.41348,-0.40375 0.52101,-0.75907 0.22971,-0.75907 -0.28315,0 -0.84772,0.69952 -1.02285,1.26732 -0.30564,0.99097 -0.29486,2.50095 0.0259,3.62919 0.0578,0.20324 0.0555,0.20338 -0.16125,0.01 -0.12092,-0.108 -0.21987,-0.24016 -0.21987,-0.29367 0,-0.0535 -0.0672,-0.24347 -0.14932,-0.42213 -0.23051,-0.50144 -0.46931,-1.54279 -0.46796,-2.04061 7.8e-4,-0.24695 0.0641,-0.68516 0.14097,-0.9738 0.16194,-0.60813 0.7813,-1.62681 1.08935,-1.79167 0.15768,-0.0844 0.21164,-0.21532 0.21164,-0.51355 0,-0.57913 0.0842,-0.72639 0.41537,-0.72639 0.24469,0 0.30961,0.0606 0.41376,0.38657 0.19446,0.60851 0.27852,0.63391 0.6467,0.19537 0.4397,-0.52374 0.79937,-0.50311 0.93695,0.0537 0.11446,0.4632 -0.0154,0.81611 -0.50816,1.38072 -0.48228,0.55264 -0.47685,0.87957 0.008,0.51247 0.32129,-0.24302 0.66397,-0.20168 0.66397,0.0801 0,0.28808 -0.13672,0.4666 -0.64427,0.84123 -0.25952,0.19156 -0.38657,0.3664 -0.38657,0.53202 0,0.23008 0.0278,0.24226 0.41234,0.18076 0.40611,-0.0649 0.41234,-0.0611 0.41234,0.25168 0,0.2269 -0.0772,0.37052 -0.27025,0.50283 -0.44782,0.3069 -0.7606,0.63095 -0.7606,0.788 0,0.23874 0.30108,0.28698 0.67717,0.10851 0.6922,-0.32847 1.2636,-1.69344 1.29027,-3.08224 l 0.0119,-0.61851 0.0997,0.41234 c 0.0548,0.22679 0.083,0.9458 0.0626,1.5978 -0.0328,1.04651 -0.0699,1.24858 -0.31651,1.72379 -0.15366,0.29607 -0.41766,0.64055 -0.58668,0.7655 -0.27464,0.20306 -0.3006,0.26901 -0.24434,0.62083 0.0703,0.43984 -0.0763,0.70401 -0.39074,0.70401 -0.11565,0 -0.23734,-0.10848 -0.29663,-0.26442 z"
       id="path120" />
  </g>
</svg>
