<?xml version="1.0" encoding="UTF-8" standalone="no"?>
<svg
   xmlns:dc="http://purl.org/dc/elements/1.1/"
   xmlns:cc="http://creativecommons.org/ns#"
   xmlns:rdf="http://www.w3.org/1999/02/22-rdf-syntax-ns#"
   xmlns:svg="http://www.w3.org/2000/svg"
   xmlns="http://www.w3.org/2000/svg"
   xmlns:sodipodi="http://sodipodi.sourceforge.net/DTD/sodipodi-0.dtd"
   xmlns:inkscape="http://www.inkscape.org/namespaces/inkscape"
   width="8.7233572mm"
   height="7.9375mm"
   viewBox="0 0 8.7233569 7.9375002"
   version="1.1"
   id="svg118"
   inkscape:version="1.0.1 (3bc2e813f5, 2020-09-07)"
   sodipodi:docname="sanctifies.svg">
  <defs
     id="defs112" />
  <sodipodi:namedview
     id="base"
     pagecolor="#ffffff"
     bordercolor="#666666"
     borderopacity="1.0"
     inkscape:pageopacity="0.0"
     inkscape:pageshadow="2"
     inkscape:zoom="2.8"
     inkscape:cx="57.741056"
     inkscape:cy="-23.231335"
     inkscape:document-units="mm"
     inkscape:current-layer="layer1"
     inkscape:document-rotation="0"
     showgrid="false"
     fit-margin-top="0"
     fit-margin-left="0"
     fit-margin-right="0"
     fit-margin-bottom="0"
     inkscape:window-width="1680"
     inkscape:window-height="997"
     inkscape:window-x="-8"
     inkscape:window-y="-8"
     inkscape:window-maximized="1" />
  <metadata
     id="metadata115">
    <rdf:RDF>
      <cc:Work
         rdf:about="">
        <dc:format>image/svg+xml</dc:format>
        <dc:type
           rdf:resource="http://purl.org/dc/dcmitype/StillImage" />
        <dc:title></dc:title>
      </cc:Work>
    </rdf:RDF>
  </metadata>
  <g
     inkscape:label="Calque 1"
     inkscape:groupmode="layer"
     id="layer1"
     transform="translate(-73.915691,-121.69509)">
    <path
       style="fill:#000000;stroke-width:0.129252"
       d="m 75.486453,129.47055 c 0.04062,-0.15995 0.02345,-0.29832 -0.03816,-0.30749 -0.495837,-0.0738 -0.856505,-0.034 -0.973921,0.10752 -0.193554,0.23322 -0.324947,0.20933 -0.398644,-0.0725 -0.119697,-0.45772 0.12782,-0.67313 0.67326,-0.58591 0.421372,0.0674 0.520641,0.0373 0.645157,-0.19534 0.122512,-0.22891 0.108341,-0.2875 -0.08461,-0.34979 -0.683844,-0.22078 -0.944639,-0.35918 -1.210924,-0.64262 -0.161592,-0.17201 -0.228933,-0.31274 -0.149648,-0.31274 0.07928,0 0.180102,0.0582 0.224038,0.12925 0.09755,0.15785 0.540539,0.17106 0.634557,0.019 0.09363,-0.1515 -0.207442,-0.95743 -0.420037,-1.12439 -0.143014,-0.11232 -0.137377,-0.16581 0.03231,-0.30665 0.226449,-0.18793 0.281096,-0.98176 0.0763,-1.10833 -0.238242,-0.14724 -0.142241,-0.43158 0.122353,-0.36239 0.198747,0.052 0.310466,-0.0594 0.531785,-0.53026 0.154099,-0.32783 0.251296,-0.7065 0.215994,-0.8415 -0.05606,-0.21435 0.0075,-0.24436 0.501759,-0.23689 0.579081,0.009 1.08391,-0.28444 1.08391,-0.6295 0,-0.0931 0.112503,-0.22951 0.250007,-0.3031 0.346419,-0.18539 0.381762,-0.17092 0.304454,0.12471 -0.06252,0.23909 -0.004,0.2585 0.779988,0.2585 0.471558,0 0.886164,-0.0624 0.934538,-0.14068 0.05296,-0.0857 0.146149,-0.0225 0.238394,0.16156 0.0833,0.16624 0.265715,0.30569 0.405377,0.30989 0.139663,0.004 0.417668,0.0769 0.617791,0.16157 0.514347,0.21759 0.818523,0.19169 1.085198,-0.0924 0.337541,-0.35958 0.757918,-0.40491 0.712286,-0.0768 -0.0939,0.67518 -0.177156,0.85392 -0.388438,0.83394 -0.321432,-0.0304 -0.803511,0.14471 -0.803511,0.29188 0,0.0694 0.118728,0.15733 0.26384,0.19527 0.151601,0.0397 0.249197,0.15821 0.229418,0.27872 -0.04866,0.29646 0.1284,0.53285 0.399106,0.53285 0.253696,0 0.658668,0.38441 0.658668,0.62523 0,0.1148 -0.06309,0.11308 -0.255279,-0.007 -0.165764,-0.10352 -0.299308,-0.11524 -0.380842,-0.0334 -0.124925,0.12538 -0.216029,1.04276 -0.128038,1.2893 0.02537,0.0711 -0.05833,0.28552 -0.186001,0.47652 -0.127673,0.191 -0.221155,0.45274 -0.207739,0.58164 0.04504,0.43269 -0.0042,0.54983 -0.199557,0.47487 -0.244244,-0.0937 -0.700464,0.43478 -0.706286,0.8182 -0.0023,0.15576 -0.06246,0.31914 -0.133553,0.36307 -0.07109,0.0439 -0.129253,-0.0108 -0.129253,-0.12162 0,-0.31317 -0.489982,-0.24029 -0.857876,0.12761 -0.269271,0.26927 -0.364005,0.30016 -0.520987,0.16987 -0.128141,-0.10634 -0.220797,-0.11493 -0.278959,-0.0258 -0.126838,0.1943 -1.466796,0.0142 -1.872566,-0.25163 -0.474452,-0.31088 -0.621767,-0.28237 -1.019921,0.19737 -0.292727,0.35271 -0.337585,0.37393 -0.275744,0.13042 z m 3.583765,-0.7807 c 0.717761,-0.21487 0.763901,-0.25318 0.809786,-0.67231 0.05748,-0.52508 0.303249,-0.85348 0.303249,-0.40522 0,0.41928 0.395483,0.30746 0.631059,-0.17842 0.103158,-0.21276 0.270175,-0.5498 0.371148,-0.74898 0.100974,-0.19917 0.143205,-0.46091 0.09385,-0.58163 -0.04936,-0.12073 -0.108975,-0.47471 -0.132482,-0.78664 -0.02351,-0.31193 -0.104518,-0.62893 -0.180024,-0.70443 -0.07551,-0.0755 -0.137284,-0.23296 -0.137284,-0.34991 0,-0.11694 -0.121096,-0.32221 -0.269103,-0.45615 -0.249568,-0.22586 -0.277964,-0.22771 -0.391176,-0.0254 -0.06714,0.11998 -0.206807,0.18562 -0.310371,0.14588 -0.212568,-0.0816 -0.96814,0.5701 -0.96814,0.83501 0,0.0942 -0.08725,0.25846 -0.193879,0.3651 -0.267241,0.26724 -0.242739,0.64354 0.0555,0.85244 0.13716,0.0961 0.291278,0.34656 0.342485,0.55665 0.09121,0.3742 0.08782,0.37731 -0.166065,0.15267 -0.293611,-0.25978 -0.682159,-0.17727 -0.68842,0.1462 -0.0022,0.1168 -0.08551,0.3198 -0.185001,0.45112 -0.09949,0.13131 -0.149581,0.32034 -0.111314,0.42007 0.03827,0.0997 -0.0056,0.18132 -0.09749,0.18132 -0.231324,0 -0.765361,0.52178 -0.765361,0.7478 0,0.14146 0.105439,0.16595 0.442305,0.10276 0.25653,-0.0481 0.476887,-0.027 0.524638,0.0502 0.106495,0.17231 0.124378,0.17059 1.022085,-0.0982 z m -1.979973,-1.05499 c 0.432961,-0.42865 0.5019,-0.56692 0.428489,-0.85941 -0.06056,-0.2413 -0.04307,-0.32113 0.05683,-0.25939 0.197484,0.12205 0.32931,-0.46231 0.245407,-1.08785 -0.05649,-0.42117 -0.02586,-0.51787 0.185312,-0.58489 0.313733,-0.0996 0.523162,-0.61859 0.418262,-1.03654 -0.0835,-0.33268 0.05859,-0.41155 0.302319,-0.16782 0.108952,0.10895 0.24582,0.0677 0.53571,-0.16157 0.495055,-0.39148 0.494486,-0.45131 -0.0052,-0.55126 -0.270604,-0.0541 -0.512293,-0.0141 -0.71454,0.11847 -0.350336,0.22955 -0.583249,0.15026 -0.464862,-0.15826 0.06834,-0.1781 0.01316,-0.19696 -0.361089,-0.12337 -0.242971,0.0478 -0.50562,0.17234 -0.583665,0.27681 -0.07805,0.10447 -0.261405,0.20819 -0.407465,0.23048 -0.396952,0.0606 -0.678535,0.34547 -0.678535,0.68651 0,0.20033 -0.05877,0.2807 -0.17317,0.2368 -0.09525,-0.0365 -0.247775,0.0235 -0.338958,0.1333 -0.09118,0.10987 -0.122462,0.19977 -0.06951,0.19977 0.05295,0 0.02377,0.0874 -0.06485,0.19415 -0.08862,0.10678 -0.183172,0.51148 -0.210113,0.89935 -0.04143,0.59647 -0.0053,0.7459 0.234302,0.96912 0.155807,0.14516 0.214154,0.26392 0.12966,0.26392 -0.279768,0 -0.15928,0.4938 0.186938,0.76614 0.187309,0.14734 0.289096,0.26878 0.226192,0.26987 -0.178309,0.003 0.252506,0.25231 0.439998,0.25454 0.09164,9.8e-4 0.3988,-0.2279 0.682587,-0.50887 z"
       id="path134" />
  </g>
</svg>
