<?xml version="1.0" encoding="UTF-8" standalone="no"?>
<svg
   xmlns:dc="http://purl.org/dc/elements/1.1/"
   xmlns:cc="http://creativecommons.org/ns#"
   xmlns:rdf="http://www.w3.org/1999/02/22-rdf-syntax-ns#"
   xmlns:svg="http://www.w3.org/2000/svg"
   xmlns="http://www.w3.org/2000/svg"
   xmlns:sodipodi="http://sodipodi.sourceforge.net/DTD/sodipodi-0.dtd"
   xmlns:inkscape="http://www.inkscape.org/namespaces/inkscape"
   width="5.5666409mm"
   height="7.937561mm"
   viewBox="0 0 5.5666411 7.937561"
   version="1.1"
   id="svg152"
   inkscape:version="1.0.1 (3bc2e813f5, 2020-09-07)"
   sodipodi:docname="temple.svg">
  <defs
     id="defs146" />
  <sodipodi:namedview
     id="base"
     pagecolor="#ffffff"
     bordercolor="#666666"
     borderopacity="1.0"
     inkscape:pageopacity="0.0"
     inkscape:pageshadow="2"
     inkscape:zoom="2.8"
     inkscape:cx="31.695853"
     inkscape:cy="60.316511"
     inkscape:document-units="mm"
     inkscape:current-layer="layer1"
     inkscape:document-rotation="0"
     showgrid="false"
     fit-margin-top="0"
     fit-margin-left="0"
     fit-margin-right="0"
     fit-margin-bottom="0"
     inkscape:window-width="1680"
     inkscape:window-height="997"
     inkscape:window-x="-8"
     inkscape:window-y="-8"
     inkscape:window-maximized="1" />
  <metadata
     id="metadata149">
    <rdf:RDF>
      <cc:Work
         rdf:about="">
        <dc:format>image/svg+xml</dc:format>
        <dc:type
           rdf:resource="http://purl.org/dc/dcmitype/StillImage" />
        <dc:title></dc:title>
      </cc:Work>
    </rdf:RDF>
  </metadata>
  <g
     inkscape:label="Calque 1"
     inkscape:groupmode="layer"
     id="layer1"
     transform="translate(-27.412162,-145.50197)">
    <path
       style="fill:#000000;stroke-width:0.0923931"
       d="m 30.161915,153.17061 c -0.03725,-0.34033 -0.06345,-0.37074 -0.331139,-0.38426 -0.159876,-0.008 -0.399021,-0.0857 -0.531432,-0.17242 -0.137118,-0.0899 -0.3406,-0.13866 -0.472719,-0.1134 -0.140894,0.0269 -0.224404,0.004 -0.212699,-0.0586 0.0491,-0.26216 -0.133223,-0.49657 -0.463106,-0.59541 -0.192642,-0.0577 -0.45171,-0.21522 -0.575707,-0.35002 -0.212452,-0.23094 -0.213815,-0.23902 -0.02364,-0.14014 0.268123,0.13941 0.491138,0.133 0.491138,-0.0141 0,-0.0655 -0.07818,-0.2724 -0.173734,-0.45982 -0.146381,-0.28712 -0.153655,-0.35744 -0.0462,-0.44662 0.141885,-0.11775 0.172669,-0.50639 0.0463,-0.58449 -0.04468,-0.0276 -0.102967,-0.13329 -0.129521,-0.23484 -0.03983,-0.15231 -0.02006,-0.16952 0.112954,-0.0983 0.131447,0.0703 0.199754,0.0177 0.369736,-0.28469 0.114675,-0.20404 0.188552,-0.44726 0.164169,-0.5405 -0.03581,-0.13695 0.0024,-0.16435 0.198654,-0.14259 0.318766,0.0353 0.714974,-0.17452 0.776951,-0.41152 0.04705,-0.17994 -0.07169,-0.24551 -0.349179,-0.19283 -0.0616,0.0117 -0.0616,-0.0129 0,-0.0737 0.05082,-0.0502 0.241496,-0.11421 0.423732,-0.14228 0.614088,-0.0946 0.596851,-0.0611 0.612326,-1.19076 0.01262,-0.92089 0.03236,-1.03735 0.175879,-1.03735 0.145692,0 0.159323,0.10155 0.13795,1.02771 l -0.02372,1.02771 0.260847,0.0669 c 0.143466,0.0368 0.363853,0.0862 0.489749,0.10973 0.275571,0.0516 0.368602,0.12402 0.159321,0.12402 -0.207557,0 -0.37518,0.32316 -0.224593,0.43299 0.300246,0.21899 0.669121,0.3456 0.932144,0.31996 0.267879,-0.0261 0.27683,-0.0183 0.116739,0.10176 -0.144258,0.1082 -0.155354,0.16374 -0.06604,0.33062 0.05904,0.11031 0.147456,0.20057 0.196484,0.20057 0.04903,0 0.08914,0.0853 0.08914,0.18959 0,0.1241 0.08842,0.22042 0.255985,0.27883 0.140792,0.0491 0.306761,0.17054 0.368819,0.26991 0.10496,0.16807 0.09267,0.17665 -0.176142,0.12288 -0.281478,-0.0563 -0.287851,-0.0501 -0.245634,0.23752 0.02384,0.16242 0.0067,0.31796 -0.03813,0.34566 -0.04481,0.0277 -0.03375,0.10786 0.02458,0.17814 0.08143,0.0981 0.07174,0.1621 -0.04171,0.27555 -0.145756,0.14576 -0.184699,0.30358 -0.152718,0.61892 0.0107,0.10551 -0.02955,0.14336 -0.116827,0.10987 -0.161179,-0.0618 -0.524973,0.37192 -0.524973,0.62595 0,0.15822 -0.01587,0.16305 -0.137168,0.0418 -0.110535,-0.11054 -0.182319,-0.1163 -0.369712,-0.0297 -0.127899,0.0591 -0.256982,0.1831 -0.286852,0.27553 -0.0497,0.15381 -0.06368,0.15525 -0.164786,0.017 -0.101526,-0.13885 -0.122695,-0.13749 -0.2612,0.0167 -0.0829,0.0923 -0.167178,0.29254 -0.187292,0.44499 -0.03333,0.25261 -0.04016,0.24442 -0.07702,-0.0924 z m -0.142417,-1.29351 c -0.0192,-0.25408 -0.05413,-0.62827 -0.07762,-0.83154 -0.02349,-0.20326 -0.07068,-0.66061 -0.104873,-1.01632 -0.03419,-0.35572 -0.07454,-0.70912 -0.08967,-0.78534 -0.01513,-0.0762 -0.03069,-0.25293 -0.03457,-0.39268 -0.0066,-0.23725 -0.224888,-0.36549 -0.299648,-0.17603 -0.01694,0.0429 -0.155529,0.13686 -0.307978,0.20875 -0.164009,0.0773 -0.289234,0.21523 -0.306704,0.33772 -0.01624,0.11386 -0.09003,0.20702 -0.163975,0.20702 -0.178627,0 -0.340476,0.40691 -0.375133,0.94313 -0.02288,0.354 0.0074,0.45982 0.162552,0.56851 0.176578,0.12368 0.178857,0.14015 0.03085,0.22298 -0.145525,0.0814 -0.135897,0.11986 0.107708,0.42979 0.214668,0.27312 0.317717,0.33339 0.521601,0.30509 0.139745,-0.0194 0.254082,-0.001 0.254082,0.0411 0,0.042 -0.05197,0.0778 -0.115492,0.0795 -0.06352,0.002 -0.01963,0.083 0.09754,0.18066 0.119502,0.0996 0.327884,0.16926 0.474637,0.15861 0.254974,-0.0185 0.260723,-0.0307 0.226698,-0.48094 z m 1.086857,0.31366 c 0.08655,-0.0453 0.134934,-0.15121 0.111067,-0.24315 -0.02326,-0.0896 0.02515,-0.24606 0.107579,-0.34769 0.08243,-0.10163 0.128737,-0.14122 0.102914,-0.088 -0.02582,0.0532 -0.01302,0.1517 0.02844,0.21879 0.100884,0.16323 0.466776,-0.19279 0.466776,-0.45418 0,-0.10164 0.03713,-0.18479 0.08251,-0.18479 0.153231,0 0.180831,-0.25269 0.05425,-0.49667 -0.07922,-0.15269 -0.08963,-0.24248 -0.02811,-0.24248 0.05768,0 0.07286,-0.0851 0.03705,-0.20788 -0.03335,-0.11434 -0.07784,-0.283 -0.09887,-0.37482 -0.06215,-0.27131 -0.425562,-0.80844 -0.511179,-0.75553 -0.04345,0.0269 -0.154232,-0.0286 -0.24619,-0.12322 -0.276911,-0.28494 -0.489459,-0.32049 -0.497641,-0.0832 -0.0039,0.11274 -0.01941,0.26735 -0.03449,0.34357 -0.01508,0.0762 -0.05523,0.47121 -0.08923,0.87774 -0.034,0.40653 -0.079,0.88466 -0.100015,1.06252 -0.02102,0.17786 -0.06415,0.54569 -0.09585,0.8174 l -0.05765,0.49402 0.307642,-0.0661 c 0.169202,-0.0363 0.37665,-0.10221 0.460995,-0.14634 z"
       id="path168" />
  </g>
</svg>
