<?xml version="1.0" encoding="UTF-8" standalone="no"?>
<svg
   xmlns:dc="http://purl.org/dc/elements/1.1/"
   xmlns:cc="http://creativecommons.org/ns#"
   xmlns:rdf="http://www.w3.org/1999/02/22-rdf-syntax-ns#"
   xmlns:svg="http://www.w3.org/2000/svg"
   xmlns="http://www.w3.org/2000/svg"
   xmlns:sodipodi="http://sodipodi.sourceforge.net/DTD/sodipodi-0.dtd"
   xmlns:inkscape="http://www.inkscape.org/namespaces/inkscape"
   width="7.6967196mm"
   height="7.9375386mm"
   viewBox="0 0 7.6967197 7.9375394"
   version="1.1"
   id="svg56"
   inkscape:version="1.0.1 (3bc2e813f5, 2020-09-07)"
   sodipodi:docname="triade.svg">
  <defs
     id="defs50" />
  <sodipodi:namedview
     id="base"
     pagecolor="#ffffff"
     bordercolor="#666666"
     borderopacity="1.0"
     inkscape:pageopacity="0.0"
     inkscape:pageshadow="2"
     inkscape:zoom="7.9195959"
     inkscape:cx="18.639405"
     inkscape:cy="26.160696"
     inkscape:document-units="mm"
     inkscape:current-layer="layer1"
     inkscape:document-rotation="0"
     showgrid="false"
     fit-margin-top="0"
     fit-margin-left="0"
     fit-margin-right="0"
     fit-margin-bottom="0"
     inkscape:window-width="1680"
     inkscape:window-height="997"
     inkscape:window-x="-8"
     inkscape:window-y="-8"
     inkscape:window-maximized="1" />
  <metadata
     id="metadata53">
    <rdf:RDF>
      <cc:Work
         rdf:about="">
        <dc:format>image/svg+xml</dc:format>
        <dc:type
           rdf:resource="http://purl.org/dc/dcmitype/StillImage" />
        <dc:title></dc:title>
      </cc:Work>
    </rdf:RDF>
  </metadata>
  <g
     inkscape:label="Calque 1"
     inkscape:groupmode="layer"
     id="layer1"
     transform="translate(-23.767852,-121.81348)">
    <path
       style="fill:#000000;stroke-width:0.146258"
       d="m 25.87023,129.46604 c -0.275791,-0.13402 -0.703559,-0.41374 -0.950595,-0.6216 -0.247036,-0.20787 -0.502882,-0.37794 -0.568545,-0.37794 -0.153848,0 -0.330143,-0.45433 -0.219304,-0.56517 0.04649,-0.0465 0.131241,-0.009 0.188341,0.0835 0.129788,0.20999 1.097189,0.27946 1.802874,0.12946 0.605656,-0.12875 1.733865,-1.14884 1.733865,-1.56772 0,-0.17682 0.158824,-0.3067 0.47533,-0.38872 0.696728,-0.18054 1.079841,-0.0581 1.572072,0.50255 0.43349,0.49372 0.50099,0.72723 0.458681,1.58675 -0.02199,0.44669 -0.467471,0.95068 -0.840313,0.95068 -0.111752,0 -0.203185,0.0553 -0.203185,0.1229 0,0.19075 -1.455752,0.46748 -2.241748,0.42614 -0.38832,-0.0204 -0.931682,-0.14678 -1.207473,-0.28079 z m 2.917592,-1.15642 c 0.453958,-0.35708 0.491864,-0.72522 0.110237,-1.07059 -0.258386,-0.23383 -0.290189,-0.23393 -0.522483,-0.002 -0.153822,0.15382 -0.216232,0.37133 -0.165056,0.57524 0.08659,0.34499 -0.218098,0.73227 -0.427124,0.54291 -0.06583,-0.0596 -0.07234,-0.0262 -0.01448,0.0744 0.15661,0.27215 0.584163,0.22166 1.018902,-0.12031 z m 1.948087,-0.6871 c -0.03283,-0.0587 -0.0999,-0.27556 -0.149057,-0.48194 -0.20814,-0.87395 -1.301219,-1.63508 -2.407716,-1.67653 -1.015795,-0.0381 -1.251744,-0.29481 -1.139159,-1.23958 0.165616,-1.38977 0.243904,-1.5807 0.745816,-1.81887 0.897681,-0.42598 1.672772,-0.24959 2.458484,0.55948 0.464358,0.47816 0.535608,0.65194 0.546099,1.33195 0.0025,0.16028 0.100284,0.43761 0.217358,0.61629 0.117074,0.17868 0.188276,0.47535 0.158226,0.65926 -0.03005,0.18392 0.01027,0.41582 0.0896,0.51535 0.07933,0.0995 0.106029,0.28053 0.05933,0.40222 -0.04669,0.12168 -0.03212,0.22124 0.03239,0.22124 0.06451,0 0.117292,0.0987 0.117292,0.2194 0,0.12066 -0.05873,0.21938 -0.130514,0.21938 -0.07178,0 -0.09798,0.0526 -0.05821,0.11699 0.03977,0.0643 -0.05202,0.19462 -0.203976,0.28952 -0.151951,0.0949 -0.303135,0.12452 -0.335964,0.0658 z m -2.078653,-3.195 c 0.217495,-0.21749 0.258156,-0.21642 0.51218,0.0135 0.262754,0.23779 0.272065,0.23494 0.194991,-0.0598 -0.09628,-0.36819 -0.716097,-0.88749 -1.059258,-0.88749 -0.308566,0 -0.594561,0.28142 -0.594561,0.58503 0,0.27796 0.278563,0.58504 0.530709,0.58504 0.09883,0 0.286001,-0.10632 0.415939,-0.23625 z m -4.510197,2.7757 c -0.411022,-0.35355 -0.502089,-0.72108 -0.203343,-0.82066 0.112434,-0.0375 0.190932,-0.37439 0.205213,-0.88077 0.01272,-0.45104 0.07258,-0.9001 0.133029,-0.9979 0.07017,-0.11354 0.0487,-0.14 -0.0594,-0.0732 -0.24797,0.15325 -0.136866,-0.37214 0.185889,-0.87904 0.675304,-1.06059 1.653096,-1.65041 2.865034,-1.72825 0.836303,-0.0537 1.245224,0.12115 0.633844,0.27105 -1.045535,0.25633 -1.96934,1.31733 -1.876916,2.15566 0.08516,0.77247 0.240081,1.27404 0.446399,1.44527 0.454698,0.37736 0.113573,1.33793 -0.576843,1.62431 -0.711626,0.29518 -1.321429,0.25466 -1.75291,-0.11648 z m 1.656518,-0.62749 c 0.197682,-0.36937 0.04579,-0.74189 -0.302494,-0.74189 -0.269001,0 -0.334269,-0.13157 -0.290212,-0.58503 0.01552,-0.15976 -0.0394,-0.14222 -0.202058,0.0645 -0.22335,0.28388 -0.285516,0.54681 -0.226805,0.95929 0.08451,0.5937 0.758952,0.79382 1.021569,0.30311 z"
       id="path72" />
  </g>
</svg>
