<?xml version="1.0" encoding="UTF-8" standalone="no"?>
<svg
   xmlns:dc="http://purl.org/dc/elements/1.1/"
   xmlns:cc="http://creativecommons.org/ns#"
   xmlns:rdf="http://www.w3.org/1999/02/22-rdf-syntax-ns#"
   xmlns:svg="http://www.w3.org/2000/svg"
   xmlns="http://www.w3.org/2000/svg"
   xmlns:sodipodi="http://sodipodi.sourceforge.net/DTD/sodipodi-0.dtd"
   xmlns:inkscape="http://www.inkscape.org/namespaces/inkscape"
   width="10.815703mm"
   height="7.9374881mm"
   viewBox="0 0 10.815703 7.9374878"
   version="1.1"
   id="svg176"
   inkscape:version="1.0.1 (3bc2e813f5, 2020-09-07)"
   sodipodi:docname="utopie.svg">
  <defs
     id="defs170" />
  <sodipodi:namedview
     id="base"
     pagecolor="#ffffff"
     bordercolor="#666666"
     borderopacity="1.0"
     inkscape:pageopacity="0.0"
     inkscape:pageshadow="2"
     inkscape:zoom="3.959798"
     inkscape:cx="12.933436"
     inkscape:cy="39.84224"
     inkscape:document-units="mm"
     inkscape:current-layer="layer1"
     inkscape:document-rotation="0"
     showgrid="false"
     fit-margin-top="0"
     fit-margin-left="0"
     fit-margin-right="0"
     fit-margin-bottom="0"
     inkscape:window-width="1680"
     inkscape:window-height="997"
     inkscape:window-x="-8"
     inkscape:window-y="-8"
     inkscape:window-maximized="1" />
  <metadata
     id="metadata173">
    <rdf:RDF>
      <cc:Work
         rdf:about="">
        <dc:format>image/svg+xml</dc:format>
        <dc:type
           rdf:resource="http://purl.org/dc/dcmitype/StillImage" />
        <dc:title></dc:title>
      </cc:Work>
    </rdf:RDF>
  </metadata>
  <g
     inkscape:label="Calque 1"
     inkscape:groupmode="layer"
     id="layer1"
     transform="translate(-101.57075,-137.16176)">
    <path
       style="fill:#000000;stroke-width:0.137848"
       d="m 104.47631,144.86539 c -0.40839,-0.45126 -0.30227,-1.19628 0.25885,-1.81738 0.46873,-0.51882 0.47745,-0.54577 0.17231,-0.5323 -0.61983,0.0274 -0.79272,-0.0276 -1.16153,-0.36941 -0.65277,-0.60497 -1.02084,-0.4116 -1.02084,0.53632 0,0.57157 0.27359,0.95614 0.59302,0.83357 0.17194,-0.066 0.2009,-0.14098 0.10094,-0.26142 -0.15315,-0.18454 -0.0384,-0.38743 0.15236,-0.2695 0.39528,0.2443 -0.0886,1.12839 -0.61216,1.11855 -0.2583,-0.005 -0.91555,-0.68655 -0.93395,-0.9687 -0.006,-0.089 -0.035,-0.28579 -0.0649,-0.43743 -0.13631,-0.69168 0.57286,-1.72311 1.18476,-1.72311 0.15408,0 0.51984,0.12229 0.81281,0.27175 0.47519,0.24243 0.54174,0.24813 0.61668,0.0528 0.0553,-0.1442 -0.1166,-0.41661 -0.5037,-0.79807 -0.32324,-0.31852 -0.73707,-0.76405 -0.91962,-0.99006 -0.38246,-0.47352 -0.72692,-0.54641 -1.01857,-0.21557 -0.2328,0.26411 -0.088,0.85347 0.20879,0.84992 0.13604,-0.002 0.13368,-0.0294 -0.0103,-0.12062 -0.14386,-0.0912 -0.14826,-0.14246 -0.0191,-0.22232 0.0938,-0.058 0.22113,-0.0199 0.28831,0.0862 0.17964,0.28361 0.15313,0.37174 -0.16262,0.54073 -0.58571,0.31346 -1.11427,-0.67383 -0.74403,-1.38978 0.17369,-0.33589 0.66112,-0.64719 0.96227,-0.61454 0.61409,0.0666 1.07165,0.28558 1.31727,0.63051 0.15794,0.22181 0.40131,0.46438 0.54081,0.53904 0.38831,0.20781 0.27252,-0.18933 -0.17653,-0.60549 -0.76719,-0.71101 -0.20473,-1.76617 0.76186,-1.42922 0.21811,0.076 0.43992,0.0916 0.49291,0.0345 0.053,-0.0571 0.0188,-0.13143 -0.076,-0.16528 -0.0948,-0.0339 -0.17231,-0.13169 -0.17231,-0.21744 0,-0.0876 0.0989,-0.057 0.22562,0.0697 0.34848,0.34848 0.13905,0.68694 -0.39294,0.63503 -0.46512,-0.0454 -0.63818,0.18937 -0.40552,0.55007 0.0916,0.14193 0.25092,0.10823 0.75469,-0.15963 1.15877,-0.61613 2.40033,-0.59834 3.0901,0.0443 0.26471,0.24661 0.31867,0.2538 0.50516,0.0673 0.3346,-0.3346 0.13182,-0.60501 -0.39017,-0.5203 -0.34907,0.0566 -0.4727,0.0175 -0.5457,-0.17273 -0.11984,-0.3123 0.24062,-0.72771 0.40319,-0.46466 0.0665,0.10761 0.0503,0.13763 -0.0431,0.0799 -0.0823,-0.0508 -0.18594,-0.0337 -0.23032,0.0381 -0.1283,0.20761 0.14467,0.29906 0.49693,0.16649 0.21901,-0.0824 0.44483,-0.0592 0.70197,0.0722 0.52649,0.26904 0.53692,1.0136 0.0195,1.39052 -0.21471,0.15641 -0.33967,0.36228 -0.31015,0.51098 0.0405,0.20399 0.16963,0.13376 0.71406,-0.3883 0.36554,-0.35052 0.73773,-0.64207 0.82709,-0.64787 0.0894,-0.006 0.26281,-0.0301 0.38546,-0.054 0.34775,-0.0678 1.06677,0.33857 1.17739,0.66548 0.20791,0.61446 -0.16606,1.48028 -0.60337,1.39692 -0.13509,-0.0257 -0.29214,-0.0516 -0.34901,-0.0574 -0.19753,-0.0202 -0.1021,-0.53294 0.11466,-0.61611 0.33722,-0.12941 0.38178,-0.10135 0.1955,0.1231 -0.11534,0.13898 -0.12174,0.20677 -0.0195,0.20677 0.26204,0 0.35316,-0.69036 0.12167,-0.92185 -0.31746,-0.31746 -0.74769,-0.10458 -1.27664,0.63168 -0.25705,0.35778 -0.62521,0.735 -0.81816,0.83826 -0.33787,0.18082 -0.47185,0.60146 -0.23767,0.74619 0.0622,0.0384 0.31184,-0.051 0.55473,-0.19863 0.76097,-0.46278 1.36951,-0.30445 1.76432,0.45903 0.43978,0.85044 0.13524,2.03649 -0.59411,2.31378 -0.42689,0.16231 -0.72807,0.0282 -0.88935,-0.39599 -0.0987,-0.25952 -0.0824,-0.40028 0.0632,-0.54583 0.13574,-0.13573 0.22489,-0.1496 0.2895,-0.0451 0.0514,0.0831 0.0277,0.15108 -0.0526,0.15108 -0.22376,0 -0.17335,0.27385 0.0674,0.36623 0.46571,0.17871 0.7986,-0.86596 0.471,-1.47808 -0.19584,-0.36592 -0.57594,-0.3342 -0.93432,0.078 -0.29901,0.34389 -0.48324,0.40075 -1.12223,0.34633 -0.31039,-0.0264 -0.32176,-0.008 -0.13784,0.22598 0.11024,0.14013 0.23504,0.2858 0.27735,0.3237 0.56531,0.5066 0.6937,1.36604 0.26771,1.79204 -0.47571,0.4757 -1.37849,0.26178 -1.37849,-0.32664 0,-0.27196 -0.23422,-0.41455 -0.31398,-0.19115 -0.034,0.0952 -0.109,0.12932 -0.16665,0.0757 -0.183,-0.1701 0.0474,-0.52287 0.34141,-0.52287 0.16807,0 0.34674,0.13993 0.44,0.34462 0.17464,0.38329 0.26102,0.41692 0.48797,0.18998 0.39039,-0.3904 -0.34754,-1.08274 -1.06025,-0.99474 -0.59189,0.0731 -1.31043,0.079 -1.86516,0.0155 -0.29478,-0.0338 -0.50261,0.0451 -0.7237,0.27465 -0.35497,0.36854 -0.37482,0.46371 -0.14475,0.69379 0.2451,0.24509 0.34639,0.20408 0.44259,-0.1792 0.0619,-0.24653 0.17964,-0.34462 0.41374,-0.34462 0.36667,0 0.53228,0.2698 0.3461,0.56389 -0.11122,0.1757 -0.18538,0.0802 -0.14353,-0.18481 0.009,-0.0569 -0.0457,-0.10338 -0.12152,-0.10338 -0.0758,0 -0.13983,0.10855 -0.14224,0.24123 -0.0116,0.63912 -0.97491,0.96527 -1.41493,0.47906 z m 2.82148,-3.26375 c -0.0249,-0.14012 -0.12737,-0.3369 -0.22776,-0.43728 -0.15145,-0.15146 -0.22,-0.12531 -0.40277,0.15363 -0.31854,0.48616 -0.27562,0.59242 0.22777,0.56384 0.35343,-0.0201 0.43845,-0.0792 0.40276,-0.28019 z m -1.04557,-0.41922 c 0.28254,-0.4312 0.16671,-0.75923 -0.26807,-0.75923 -0.50788,0 -0.97135,0.43434 -0.85492,0.80119 0.13923,0.43866 0.82486,0.41305 1.12299,-0.0419 z m 2.39306,0.14559 c 0.32103,-0.38681 -0.41303,-1.13497 -0.92316,-0.94088 -0.2812,0.10698 -0.19622,0.69292 0.13406,0.92426 0.38066,0.26663 0.57816,0.27079 0.7891,0.0166 z"
       id="path192" />
  </g>
</svg>
