<?xml version="1.0" encoding="UTF-8" standalone="no"?>
<svg
   xmlns:dc="http://purl.org/dc/elements/1.1/"
   xmlns:cc="http://creativecommons.org/ns#"
   xmlns:rdf="http://www.w3.org/1999/02/22-rdf-syntax-ns#"
   xmlns:svg="http://www.w3.org/2000/svg"
   xmlns="http://www.w3.org/2000/svg"
   xmlns:sodipodi="http://sodipodi.sourceforge.net/DTD/sodipodi-0.dtd"
   xmlns:inkscape="http://www.inkscape.org/namespaces/inkscape"
   width="9.2808599mm"
   height="7.9374995mm"
   viewBox="0 0 9.2808604 7.9374994"
   version="1.1"
   id="svg200"
   inkscape:version="1.0.1 (3bc2e813f5, 2020-09-07)"
   sodipodi:docname="walosi.svg">
  <defs
     id="defs194" />
  <sodipodi:namedview
     id="base"
     pagecolor="#ffffff"
     bordercolor="#666666"
     borderopacity="1.0"
     inkscape:pageopacity="0.0"
     inkscape:pageshadow="2"
     inkscape:zoom="1.979899"
     inkscape:cx="39.419228"
     inkscape:cy="106.40323"
     inkscape:document-units="mm"
     inkscape:current-layer="layer1"
     inkscape:document-rotation="0"
     showgrid="false"
     fit-margin-top="0"
     fit-margin-left="0"
     fit-margin-right="0"
     fit-margin-bottom="0"
     inkscape:window-width="1680"
     inkscape:window-height="997"
     inkscape:window-x="-8"
     inkscape:window-y="-8"
     inkscape:window-maximized="1" />
  <metadata
     id="metadata197">
    <rdf:RDF>
      <cc:Work
         rdf:about="">
        <dc:format>image/svg+xml</dc:format>
        <dc:type
           rdf:resource="http://purl.org/dc/dcmitype/StillImage" />
        <dc:title></dc:title>
      </cc:Work>
    </rdf:RDF>
  </metadata>
  <g
     inkscape:label="Calque 1"
     inkscape:groupmode="layer"
     id="layer1"
     transform="translate(-67.274606,-162.58521)">
    <path
       style="fill:#000000;stroke-width:0.134702"
       d="m 70.415052,170.18649 c -0.173728,-0.18492 -0.277958,-0.37413 -0.231626,-0.42047 0.04634,-0.0463 -0.145674,-0.42541 -0.426686,-0.84241 -0.81751,-1.21314 -1.20515,-1.94124 -1.264226,-2.37462 -0.08972,-0.6582 -0.35405,-1.18156 -0.859584,-1.70197 -0.303909,-0.31285 -0.421537,-0.52308 -0.325785,-0.58226 0.08499,-0.0525 0.405233,0.18858 0.739823,0.55699 0.324483,0.35729 0.641389,0.59887 0.704236,0.53684 0.06285,-0.062 0.120513,-0.57726 0.12814,-1.14498 0.0175,-1.30126 0.02108,-1.32053 0.211301,-1.13031 0.0868,0.0868 0.167373,0.47777 0.179056,0.86883 0.05023,1.68138 0.379747,1.97453 1.245877,1.10839 0.32924,-0.32923 0.521575,-0.43481 0.617457,-0.33893 0.09588,0.0959 -0.03714,0.30212 -0.427051,0.66209 -0.645478,0.5959 -0.648382,0.96325 -0.0076,0.96325 0.494358,0 0.506655,0.21145 0.01928,0.33127 -0.534566,0.13144 -0.976589,0.4491 -0.976589,0.70184 0,0.23841 0.855095,1.59077 1.102535,1.7437 0.150456,0.093 0.602018,-0.33699 1.360108,-1.29507 0.352186,-0.44511 0.381574,-0.45682 0.525601,-0.20959 0.212668,0.36506 1.199284,1.42191 1.327415,1.42191 0.05807,0 0.270565,-0.53039 0.472203,-1.17866 0.201643,-0.64824 0.398535,-1.26957 0.437536,-1.38069 0.039,-0.11114 0.0252,-0.16098 -0.03063,-0.11076 -0.05585,0.0502 -0.282355,-0.0186 -0.503342,-0.15303 -0.220989,-0.1344 -0.51834,-0.21387 -0.660783,-0.17663 -0.142439,0.0373 -0.258983,4e-5 -0.258983,-0.0827 0,-0.16476 0.03063,-0.17583 0.570252,-0.20611 0.369174,-0.0207 0.871715,-0.34841 0.534306,-0.34841 -0.0889,0 -0.16164,-0.0769 -0.16164,-0.17078 0,-0.0939 -0.146521,-0.38641 -0.3256,-0.64995 -0.214902,-0.31626 -0.286084,-0.54309 -0.209378,-0.66721 0.06392,-0.10342 0.137192,-0.15948 0.162824,-0.12459 0.02563,0.0349 0.222694,0.33622 0.43792,0.66961 l 0.391321,0.60617 0.101745,-0.47146 c 0.101796,-0.47168 0.06842,-1.01474 -0.09716,-1.58112 -0.06227,-0.21302 -0.02265,-0.32657 0.135018,-0.38708 0.341227,-0.13094 0.379795,-0.014 0.381353,1.15569 0.0014,1.21797 0.156162,1.27392 0.564607,0.20444 0.126917,-0.33235 0.279881,-0.60426 0.339912,-0.60426 0.171908,0 0.304154,0.46097 0.147254,0.51327 -0.222226,0.0741 -0.682789,1.2272 -0.682789,1.70952 0,0.24057 -0.08824,0.68748 -0.196081,0.99314 -0.107843,0.30566 -0.166325,0.55575 -0.129959,0.55575 0.03634,0 0.005,0.11429 -0.0698,0.25397 -0.07476,0.13968 -0.166129,0.48822 -0.203057,0.77454 -0.08734,0.67724 -0.551603,1.9817 -0.725982,2.03982 -0.07478,0.025 -0.420223,-0.22707 -0.767663,-0.55998 -0.347446,-0.3329 -0.715839,-0.63756 -0.81866,-0.67702 -0.102821,-0.0394 -0.186946,-0.13426 -0.186946,-0.21068 0,-0.30822 -0.271788,-0.094 -1.019761,0.804 -0.431994,0.51861 -0.823326,0.94292 -0.869626,0.94292 -0.04631,0 -0.226326,-0.15131 -0.400053,-0.33623 z"
       id="path216" />
  </g>
</svg>
